<?xml version="1.0" standalone="no"?><!DOCTYPE svg PUBLIC "-//W3C//DTD SVG 1.1//EN" "http://www.w3.org/Graphics/SVG/1.1/DTD/svg11.dtd"><svg t="1776849518045" class="icon" viewBox="0 0 1024 1024" version="1.1" xmlns="http://www.w3.org/2000/svg" p-id="3002" xmlns:xlink="http://www.w3.org/1999/xlink" width="200" height="200"><path d="M516.3 64c-244.6 0-443 194.8-443 435.1 0 111.4 42.7 213 112.8 290-53.6 57.1-121.4 64.5-121.4 64.5C165.8 920.8 287.8 960 419 960c107.1 0 208-26.1 296.5-72.2C860.1 816.1 959.3 669 959.3 499.1 959.3 258.8 761 64 516.3 64z m208.1 650.5C609.8 829 424 829 309.4 714.5c-81-81-104.7-197.6-71.2-299.5 3.4-11.1 7.2-21.9 11.3-32.5-3.6 7.6-6.9 15.2-9.8 23 20.2-59.6 54-115.5 101.4-163 61.9-61.9 138.2-100.6 218.2-116-0.2 0.3-28.2 35.5-26.1 87.6 69.6 3.9 138 32.3 191.2 85.5C839 414 839 599.9 724.4 714.5z" fill="#5D59FD" p-id="3003"></path><path d="M411.8 432.9c-24.2 0-43.9 19.7-43.9 43.9v60.7c0 24.2 19.6 43.9 43.9 43.9 24.2 0 43.9-19.7 43.9-43.9v-60.7c0-24.3-19.7-43.9-43.9-43.9zM629 432.9c-24.2 0-43.9 19.7-43.9 43.9v60.7c0 24.2 19.6 43.9 43.9 43.9 24.2 0 43.9-19.7 43.9-43.9v-60.7c0-24.3-19.6-43.9-43.9-43.9z" fill="#5D59FD" p-id="3004"></path></svg>