<svg t="1776946655288" class="icon" viewBox="0 0 1024 1024" version="1.1" xmlns="http://www.w3.org/2000/svg" p-id="9624" width="200" height="200"><path d="M407.168 681.386667V330.752a42.666667 42.666667 0 0 1 85.333333 0v350.549333a40.832 40.832 0 0 0 81.621334 0V305.749333a115.968 115.968 0 1 0-231.850667 0v375.594667a191.104 191.104 0 0 0 382.122667 0V364.16a42.666667 42.666667 0 0 1 85.333333 0v317.184a276.394667 276.394667 0 1 1-552.789333 0V305.749333a201.301333 201.301333 0 0 1 402.517333 0v375.594667a126.165333 126.165333 0 1 1-252.288 0z" p-id="9625" fill="#2c2c2c"></path></svg>
